<svg width="48" height="48" viewBox="0 0 48 48" fill="none" xmlns="http://www.w3.org/2000/svg">
<path d="M30.4998 36.6999L29.5998 37.1999L18.6998 43.4999C13.5998 46.4999 7.09979 44.6999 4.09979 39.5999C1.19979 34.4999 2.89979 27.9999 7.99979 25.0999L14.2998 21.4999C14.4998 21.4999 14.5998 21.4999 14.7998 21.4999H21.3998V21.3999H21.5998L29.9998 35.8999L30.4998 36.6999Z" stroke="#4F4F4F" stroke-width="2"/>
<path d="M45.0996 17.9998L38.7996 28.8998L38.2996 29.7998L37.3996 29.2998L23.5996 21.3998H24.2996C29.2996 21.3998 33.2996 17.3998 33.2996 12.3998V7.09977H28.0996C27.5996 7.09977 27.0996 7.09977 26.5996 7.19977C29.5996 2.19977 36.0996 0.499767 41.0996 3.39977C46.2996 6.39977 47.9996 12.8998 45.0996 17.9998Z" stroke="#4F4F4F" stroke-width="2"/>
<path d="M33.2998 7.1001V12.3001C33.2998 17.3001 29.2998 21.3001 24.2998 21.3001H21.3998V14.8001C21.3998 13.4001 21.1998 12.1001 20.7998 10.8001C22.1998 8.9001 24.1998 7.6001 26.5998 7.2001C27.0998 7.1001 27.5998 7.1001 28.0998 7.1001H33.2998V7.1001Z" stroke="#4F4F4F" stroke-width="2"/>
<path d="M27.5996 13.4999C27.6996 12.8999 27.2996 11.1999 27.0996 10.3999" stroke="#4F4F4F" stroke-width="2" stroke-linecap="round"/>
<path d="M27.5996 13.5002C28.1996 13.4002 29.6996 13.3002 30.4996 13.5002" stroke="#4F4F4F" stroke-width="2" stroke-linecap="round"/>
<path d="M24.9 17.6002C24.9 16.8002 24.7 14.0002 24 12.7002" stroke="#4F4F4F" stroke-width="2" stroke-linecap="round"/>
<path d="M24.7998 17.5C25.6998 17.5 26.9998 17.1 28.1998 17.5" stroke="#4F4F4F" stroke-width="2" stroke-linecap="round"/>
<path d="M22.0996 21.0001L30.1996 10.6001" stroke="#4F4F4F" stroke-width="2" stroke-linecap="round"/>
<path d="M21.5004 14.7998V21.3998H14.9004C14.7004 21.3998 14.6004 21.3998 14.4004 21.3998C7.40039 21.0998 1.90039 15.3998 1.90039 8.3998V1.7998H8.50039C14.3004 1.7998 19.2004 5.5998 20.9004 10.7998C21.2004 12.0998 21.5004 13.3998 21.5004 14.7998Z" stroke="#4F4F4F" stroke-width="2"/>
<path d="M19.7998 19.7999L5.7998 5.8999" stroke="#4F4F4F" stroke-width="2" stroke-linecap="round"/>
<path d="M10.3004 10.1001C9.60039 10.1001 7.90039 10.2001 6.90039 10.8001" stroke="#4F4F4F" stroke-width="2" stroke-linecap="round"/>
<path d="M10.2002 10.2999C10.2002 9.5999 10.3002 7.8999 10.9002 6.8999" stroke="#4F4F4F" stroke-width="2" stroke-linecap="round"/>
<path d="M13.4 13.4C12.4 13.3 9.9 13.2 8.5 13.7" stroke="#4F4F4F" stroke-width="2" stroke-linecap="round"/>
<path d="M13.4 13.4C13.3 12.4 13.2 9.9 13.7 8.5" stroke="#4F4F4F" stroke-width="2" stroke-linecap="round"/>
<path d="M16.6002 16.6002C15.6002 16.5002 13.1002 16.4002 11.7002 16.9002" stroke="#4F4F4F" stroke-width="2" stroke-linecap="round"/>
<path d="M16.6998 16.6002C16.5998 15.6002 16.4998 13.1002 16.9998 11.7002" stroke="#4F4F4F" stroke-width="2" stroke-linecap="round"/>
<path d="M34 35C35.1046 35 36 34.1046 36 33C36 31.8954 35.1046 31 34 31C32.8954 31 32 31.8954 32 33C32 34.1046 32.8954 35 34 35Z" stroke="#4F4F4F" stroke-width="2"/>
<path d="M43 37C44.1046 37 45 36.1046 45 35C45 33.8954 44.1046 33 43 33C41.8954 33 41 33.8954 41 35C41 36.1046 41.8954 37 43 37Z" stroke="#4F4F4F" stroke-width="2"/>
<path d="M35 42C36.1046 42 37 41.1046 37 40C37 38.8954 36.1046 38 35 38C33.8954 38 33 38.8954 33 40C33 41.1046 33.8954 42 35 42Z" stroke="#4F4F4F" stroke-width="2"/>
<path d="M41.7998 44.2002C42.9044 44.2002 43.7998 43.3048 43.7998 42.2002C43.7998 41.0956 42.9044 40.2002 41.7998 40.2002C40.6952 40.2002 39.7998 41.0956 39.7998 42.2002C39.7998 43.3048 40.6952 44.2002 41.7998 44.2002Z" stroke="#4F4F4F" stroke-width="2"/>
</svg>
